<svg width="33" height="33" viewBox="0 0 33 33" fill="none" xmlns="http://www.w3.org/2000/svg">
<path d="M26.86 9.76997C26.11 10.1 25.31 10.32 24.49 10.42C25.35 9.89997 26 9.08997 26.31 8.12997C25.5 8.60997 24.61 8.94997 23.69 9.12997C22.12 7.46997 19.51 7.38997 17.84 8.94997C16.77 9.95997 16.31 11.46 16.65 12.89C13.33 12.72 10.23 11.15 8.14 8.56997C7.04 10.46 7.6 12.87 9.41 14.09C8.75 14.07 8.11 13.89 7.54 13.57V13.62C7.54 15.59 8.93 17.28 10.85 17.67C10.24 17.84 9.6 17.86 8.98 17.74C9.52 19.42 11.07 20.58 12.84 20.61C11.11 21.96 8.91 22.58 6.72 22.32C12.18 25.82 19.45 24.23 22.95 18.77C24.16 16.88 24.81 14.67 24.81 12.42C24.81 12.24 24.81 12.06 24.8 11.89C25.61 11.31 26.31 10.58 26.87 9.74997L26.86 9.76997Z" fill="#FFFFFF"/>
</svg>
