<svg width="33" height="33" viewBox="0 0 33 33" fill="none" xmlns="http://www.w3.org/2000/svg">
<path d="M27 15.16C27 10.4 22.23 6.53003 16.36 6.53003C10.49 6.53003 5.71997 10.4 5.71997 15.16C5.71997 19.43 9.49997 23 14.62 23.68C14.97 23.75 15.44 23.91 15.56 24.2C15.64 24.51 15.65 24.84 15.59 25.16C15.59 25.16 15.47 25.91 15.44 26.07C15.39 26.34 15.23 27.12 16.36 26.64C19.44 25.02 22.26 22.94 24.72 20.46C26.14 19.05 26.96 17.15 26.99 15.15L27 15.16ZM12.61 17.7C12.61 17.81 12.52 17.91 12.4 17.91H9.41997C9.36997 17.91 9.31997 17.89 9.27997 17.85C9.27997 17.85 9.21997 17.76 9.21997 17.71V13.08C9.21997 12.97 9.30997 12.87 9.42997 12.87H10.18C10.29 12.87 10.39 12.96 10.39 13.08V16.76H12.42C12.53 16.76 12.63 16.85 12.63 16.97V17.71L12.61 17.7ZM14.41 17.7C14.41 17.81 14.32 17.91 14.2 17.91H13.45C13.34 17.91 13.24 17.82 13.24 17.7V13.07C13.24 12.96 13.33 12.86 13.45 12.86H14.2C14.31 12.86 14.41 12.95 14.41 13.07V17.7ZM19.55 17.7C19.55 17.81 19.46 17.91 19.34 17.91H18.59C18.59 17.91 18.55 17.91 18.54 17.91H18.48C18.48 17.91 18.44 17.87 18.43 17.85L16.3 14.98V17.73C16.3 17.84 16.21 17.94 16.09 17.94H15.34C15.23 17.94 15.13 17.85 15.13 17.73V13.1C15.13 12.99 15.22 12.89 15.34 12.89H16.19H16.2H16.21L16.22 12.91C16.22 12.91 16.23 12.92 16.24 12.93L18.36 15.8V13.05C18.36 12.94 18.45 12.84 18.57 12.84H19.32C19.43 12.84 19.53 12.93 19.53 13.05V17.7H19.55ZM23.67 13.81C23.67 13.92 23.58 14.02 23.46 14.02H21.43V14.8H23.46C23.57 14.8 23.67 14.89 23.67 15.01V15.76C23.67 15.87 23.58 15.97 23.46 15.97H21.43V16.75H23.46C23.57 16.75 23.67 16.84 23.67 16.96V17.71C23.67 17.82 23.58 17.92 23.46 17.92H20.48C20.43 17.92 20.38 17.9 20.34 17.86C20.34 17.86 20.28 17.77 20.28 17.72V13.09C20.28 13.04 20.3 12.99 20.34 12.95C20.34 12.95 20.43 12.89 20.48 12.89H23.46C23.57 12.89 23.67 12.98 23.67 13.1V13.84V13.81Z" fill="#FFFFFF"/>
</svg>
