<svg width="40" height="40" viewBox="0 0 40 40" fill="none" xmlns="http://www.w3.org/2000/svg">
<g clip-path="url(#clip0_3_44)">
<path d="M20.9 25.4H19.1V40H20.9V25.4Z" fill="#FFFFFF"/>
<path d="M20.6666 0H19.3333V14.6H20.6666V0Z" fill="#FFFFFF"/>
<path d="M14.5667 18.4333H0V21.5667H14.5667V18.4333Z" fill="#FFFFFF"/>
<path d="M40 18.8333H25.4V21.1333H40V18.8333Z" fill="#FFFFFF"/>
<path d="M15.4226 23.1011L5.13324 33.412L6.59612 34.8719L16.8855 24.5609L15.4226 23.1011Z" fill="#FFFFFF"/>
<path d="M33.2911 4.98361L22.9709 15.311L24.6922 17.031L35.0123 6.70364L33.2911 4.98361Z" fill="#FFFFFF"/>
<path d="M6.13896 5.58818L5.59637 6.12982L15.9111 16.4626L16.4537 15.9209L6.13896 5.58818Z" fill="#FFFFFF"/>
<path d="M24.6219 23.0553L23.0443 24.6362L33.3789 34.9491L34.9564 33.3683L24.6219 23.0553Z" fill="#FFFFFF"/>
<path d="M27.1333 38.7L28.1667 38.2667L22.6 24.7667L21.5333 25.2333L27.1333 38.7Z" fill="#FFFFFF"/>
<path d="M13.2 1.16669L11.5 1.86669L17.0667 15.3667L18.7667 14.6334L13.2 1.16669Z" fill="#FFFFFF"/>
<path d="M1.40002 27.3333L1.63336 27.9667L15.1334 22.4L14.8667 21.7667L1.40002 27.3333Z" fill="#FFFFFF"/>
<path d="M38.2308 11.7063L24.7451 17.3005L25.2559 18.5321L38.7417 12.9379L38.2308 11.7063Z" fill="#FFFFFF"/>
<path d="M12.0667 38.3667L12.6 38.6L18.2 25.1L17.6667 24.9L12.0667 38.3667Z" fill="#FFFFFF"/>
<path d="M27.9333 1.63336L27.3667 1.40002L21.7667 14.8667L22.3333 15.1334L27.9333 1.63336Z" fill="#FFFFFF"/>
<path d="M1.56183 12.1675L1.42169 12.5063L14.9133 18.0865L15.0534 17.7476L1.56183 12.1675Z" fill="#FFFFFF"/>
<path d="M25.092 21.8508L24.9135 22.282L38.4031 27.8668L38.5816 27.4356L25.092 21.8508Z" fill="#FFFFFF"/>
</g>
<defs>
<clipPath id="clip0_3_44">
<rect width="40" height="40" fill="white"/>
</clipPath>
</defs>
</svg>
