<svg width="51" height="40" viewBox="0 0 51 40" fill="none" xmlns="http://www.w3.org/2000/svg">
<g clip-path="url(#clip0_586_683)">
<path d="M32.9902 33.7708H31.3007V33.8152V39.9999H35.7913V38.7541H32.9902V33.7708Z" fill="white"/>
<path d="M40.6821 38.7987V37.2414C40.6821 36.7075 40.5487 36.2181 40.193 35.8621C39.8373 35.5062 39.2593 35.2837 38.4145 35.2837C37.4809 35.2837 36.7695 35.5062 36.4138 35.6841L36.725 36.663C37.0362 36.4405 37.6142 36.3071 38.1033 36.3071C38.5035 36.3071 38.7258 36.396 38.8147 36.485C38.9481 36.574 38.9925 36.7075 38.9925 36.841C38.1033 36.841 37.3475 36.9745 36.8139 37.2859C36.2804 37.5529 35.9692 37.9978 35.9692 38.6207C35.9692 38.9767 36.147 39.3326 36.4138 39.5996C36.725 39.8666 37.1252 40.0445 37.6587 40.0445C38.2367 40.0445 38.7702 39.8666 39.1259 39.5106L39.2148 39.9555H40.7265C40.6821 39.6441 40.6376 39.2436 40.6376 38.8432L40.6821 38.7987ZM37.7476 38.1758C37.7476 38.1758 38.0144 37.9533 38.2367 37.9088C38.459 37.8643 38.7258 37.8198 39.037 37.8198V38.2648C39.037 38.2648 39.037 38.4428 39.037 38.4872C38.9481 38.7542 38.6369 38.9767 38.2367 38.9767C38.0589 38.9767 37.9255 38.9767 37.8366 38.8432C37.7476 38.7542 37.6587 38.6652 37.6587 38.4872C37.6587 38.3538 37.6587 38.2648 37.7476 38.1758Z" fill="white"/>
<path d="M44.8614 35.2391C44.1945 35.2391 43.661 35.4616 43.3497 35.8175V33.7263H41.6602V38.4872C41.6602 38.9766 41.6602 39.5105 41.6602 39.822H43.0385V39.2436C43.4831 39.733 44.0611 39.911 44.6391 39.911C45.2171 39.911 45.8396 39.6885 46.2842 39.2881C46.7288 38.8876 47.04 38.2647 47.04 37.4638C47.04 36.7519 46.8177 36.1735 46.4176 35.773C46.0174 35.3726 45.4839 35.1501 44.8614 35.1501V35.2391ZM44.2834 36.396C44.6391 36.396 44.9059 36.5294 45.0837 36.7519C45.2616 36.9744 45.3505 37.2858 45.3505 37.5973C45.3505 37.9977 45.2616 38.3092 45.0837 38.4872C44.9059 38.7096 44.6391 38.7986 44.3279 38.7986C43.8833 38.7986 43.5276 38.5317 43.4387 38.1757C43.4387 38.1757 43.4387 38.0422 43.4387 37.9532V37.2858C43.4387 37.2858 43.4387 37.1079 43.4387 37.0189C43.5276 36.6184 43.9277 36.3515 44.3279 36.3515L44.2834 36.396Z" fill="white"/>
<path d="M9.91488 37.4192H12.4492V37.3748V36.1734H9.91488V34.9721H12.5826V33.7708H8.31427V39.9999H12.7159V38.7986H9.91488V37.4192Z" fill="white"/>
<path d="M18.2291 35.5951C18.2291 36.4404 18.2291 37.2413 18.3625 37.9977C18.0513 37.3303 17.6956 36.6184 17.2954 36.04L15.8727 33.7708H14.0053V40H15.517V38.0867C15.517 37.1079 15.517 36.307 15.4725 35.5061C15.7838 36.218 16.2284 36.9299 16.5841 37.5528L18.0513 39.9555H19.7408V33.7263H18.2291V35.5506V35.5951Z" fill="white"/>
<path d="M22.5864 37.4192H25.0762V37.3748V36.1734H22.5864V34.9721H25.2096V33.7708H20.9413V39.9999H25.343V38.7986H22.5864V37.4192Z" fill="white"/>
<path d="M26.5434 33.7708V39.9999H28.144V33.7708H26.5434Z" fill="white"/>
<path d="M47.04 38.7097V40H48.3294V38.7097H47.04Z" fill="white"/>
<path d="M7.20275 35.5506C6.98044 34.9722 6.53583 34.4828 5.95784 34.1713C5.37984 33.8599 4.71292 33.6819 4.00154 33.6819H1.33386V40.0445H4.00154C4.49061 40.0445 4.97969 39.9555 5.4243 39.822C6.04676 39.5996 6.58029 39.1546 6.93598 38.6652C7.29167 38.1313 7.46952 37.5084 7.46952 36.8409C7.46952 36.396 7.3806 35.9511 7.24721 35.5951L7.20275 35.5506ZM5.60215 36.7965C5.60215 37.0634 5.60215 37.3304 5.46876 37.5084C5.33538 37.8198 5.15753 38.0423 4.93523 38.1758C4.71292 38.3092 4.35723 38.4427 3.91262 38.4427H3.15677V35.1502H3.91262C4.22385 35.1502 4.49061 35.1947 4.71292 35.2837C5.02415 35.4171 5.20199 35.5951 5.37984 35.8621C5.51322 36.129 5.60215 36.4405 5.60215 36.7965Z" fill="white"/>
<path d="M7.60288 8.27597H14.0942C14.5388 8.27597 14.939 7.92002 14.939 7.43059C14.939 6.94116 14.5833 6.58521 14.0942 6.58521H7.60288C7.15827 6.58521 6.75812 6.94116 6.75812 7.43059C6.75812 7.92002 7.11381 8.27597 7.60288 8.27597Z" fill="white"/>
<path d="M9.15903 10.3672C8.71442 10.3672 8.31427 10.7231 8.31427 11.2126C8.31427 11.702 8.66996 12.058 9.15903 12.058H11.2932C11.7378 12.058 12.1379 11.702 12.1379 11.2126C12.1379 10.7231 11.7822 10.3672 11.2932 10.3672H9.15903Z" fill="white"/>
<path d="M3.73472 21.7129H1.86735C1.86735 21.7129 1.73396 21.7129 1.73396 21.624C1.73396 21.5795 1.73396 21.4905 1.73396 21.446L2.93442 19.6217H6.26901C6.71363 19.6217 7.11378 19.2658 7.11378 18.7763C7.11378 18.2869 6.75809 17.931 6.26901 17.931H4.04595L5.37979 15.9287C5.37979 15.9287 5.46871 15.8397 5.51317 15.8397H12.0045C12.627 15.8397 13.205 15.5283 13.5607 14.9944L18.0068 8.32028C18.0068 8.32028 18.0957 8.23129 18.1402 8.23129H23.2532C23.2532 8.23129 23.3866 8.23129 23.3866 8.32028C23.3866 8.36478 23.3866 8.45376 23.3866 8.49826L22.2306 10.2335C22.2306 10.2335 22.1417 10.3225 22.0972 10.3225H18.8516C18.4069 10.3225 18.0068 10.6785 18.0068 11.1679C18.0068 11.6573 18.3625 12.0133 18.8516 12.0133H22.0972C22.7197 12.0133 23.2977 11.7018 23.6534 11.1679L24.8094 9.43263C25.2095 8.85421 25.2095 8.14231 24.8983 7.51939C24.5871 6.89648 23.9646 6.54053 23.2532 6.54053H18.1402C17.5177 6.54053 16.9397 6.85198 16.584 7.38591L12.1379 14.06C12.1379 14.06 12.049 14.149 12.0045 14.149H5.51317C4.89072 14.149 4.31272 14.4604 3.95703 14.9944L1.73396 18.3314L0.266742 20.5561C-0.13341 21.1345 -0.13341 21.8464 0.177819 22.4693C0.489048 23.0923 1.11151 23.4482 1.82289 23.4482H3.69026C4.13487 23.4482 4.53502 23.0923 4.53502 22.6028C4.53502 22.1134 4.17933 21.7574 3.69026 21.7574L3.73472 21.7129Z" fill="white"/>
<path d="M12.5381 4.49399H27.6549C28.0995 4.49399 28.4997 4.13804 28.4997 3.64861C28.4997 3.15917 28.144 2.80322 27.6549 2.80322H12.5381C12.0934 2.80322 11.6933 3.15917 11.6933 3.64861C11.6933 4.13804 12.049 4.49399 12.5381 4.49399Z" fill="white"/>
<path d="M42.0603 18.821C41.6602 18.5541 41.1711 18.6875 40.9044 19.0435L36.5916 25.4951H29.5667C29.5667 25.4951 29.4333 25.4951 29.4333 25.4061C29.4333 25.3616 29.4333 25.2726 29.4333 25.2281L32.3678 20.8233C32.7679 20.2448 32.7679 19.5329 32.4567 18.91C32.1455 18.2871 31.523 17.9312 30.8116 17.9312H25.6986C25.0761 17.9312 24.4981 18.2426 24.1424 18.7765L22.9865 20.5118C22.5863 21.0902 22.5863 21.8021 22.8975 22.425C23.2088 23.0479 23.8312 23.4039 24.5426 23.4039C24.6315 23.4039 24.676 23.4039 24.676 23.4929C24.676 23.5374 24.676 23.6264 24.676 23.6709L22.6308 26.7409C21.6971 28.1203 20.1409 28.9656 18.4959 28.9656H12.8493C12.4047 28.9656 12.0045 29.3216 12.0045 29.811C12.0045 30.3005 12.3602 30.6564 12.8493 30.6564H18.4959C20.7189 30.6564 22.8086 29.5441 24.0535 27.6753L26.0987 24.6052C26.4989 24.0268 26.4989 23.3149 26.1877 22.692C25.8764 22.0691 25.254 21.7131 24.5426 21.7131C24.4537 21.7131 24.4092 21.7131 24.4092 21.6241C24.4092 21.5797 24.4092 21.4907 24.4092 21.4462L25.5652 19.7109C25.5652 19.7109 25.6541 19.6219 25.6986 19.6219H30.8116C30.8116 19.6219 30.945 19.6219 30.945 19.7109C30.945 19.7554 30.945 19.8444 30.945 19.8889L28.0106 24.2938C27.6104 24.8722 27.6104 25.5841 27.9217 26.207C28.2329 26.8299 28.8553 27.1859 29.5667 27.1859H37.0362C37.303 27.1859 37.5698 27.0524 37.7476 26.8299L42.2827 19.9779C42.5494 19.5774 42.416 19.088 42.0603 18.821Z" fill="white"/>
<path d="M49.93 0.133369C49.5299 -0.133594 49.0408 -0.000112507 48.774 0.355839L34.3241 22.0689C34.0574 22.4693 34.1907 22.9587 34.5464 23.2257C34.6798 23.3147 34.8577 23.3592 34.991 23.3592C35.2578 23.3592 35.5246 23.2257 35.7024 23.0032L50.1523 1.29021C50.4191 0.889765 50.2857 0.400332 49.93 0.133369Z" fill="white"/>
<path d="M19.7408 17.0413C20.141 16.4629 20.141 15.7509 19.8298 15.128C19.5185 14.5051 18.8961 14.1492 18.1847 14.1492H16.3173C15.8727 14.1492 15.4725 14.5051 15.4725 14.9946C15.4725 15.484 15.8282 15.8399 16.3173 15.8399H18.1847C18.1847 15.8399 18.3181 15.8399 18.3181 15.9289C18.3181 15.9734 18.3181 16.0624 18.3181 16.1069L17.1176 17.9312H10.5373C9.91488 17.9312 9.33689 18.2426 8.9812 18.7765L5.29091 24.2938C4.89076 24.8722 4.89076 25.5841 5.20199 26.207C5.51322 26.8299 6.13568 27.1859 6.84706 27.1859H15.7393C16.3618 27.1859 16.9398 26.8744 17.2955 26.3405L19.5185 23.0035C19.7853 22.603 19.6519 22.1136 19.2962 21.8466C18.8961 21.5796 18.407 21.7131 18.1402 22.0691L15.9172 25.4061C15.9172 25.4061 15.8282 25.4951 15.7838 25.4951H6.89152C6.89152 25.4951 6.75813 25.4951 6.75813 25.4061C6.75813 25.3616 6.75813 25.2726 6.75813 25.2281L10.4484 19.7109C10.4484 19.7109 10.5373 19.6219 10.5818 19.6219H16.0061L14.6722 21.6241C14.6722 21.6241 14.5833 21.7131 14.5389 21.7131H11.2932C10.8486 21.7131 10.4484 22.0691 10.4484 22.5585C10.4484 23.0479 10.8041 23.4039 11.2932 23.4039H14.5389C15.1613 23.4039 15.7393 23.0924 16.095 22.5585" fill="white"/>
<path d="M26.6323 11.0791C26.9435 11.6575 27.566 12.0579 28.2774 12.0579C28.3663 12.0579 28.4108 12.0579 28.4108 12.1469C28.4108 12.2359 28.4108 12.2804 28.4108 12.3249L27.2548 14.0601C27.2548 14.0601 27.1658 14.1491 27.1214 14.1491H23.8757C23.4311 14.1491 23.0309 14.5051 23.0309 14.9945C23.0309 15.4839 23.3866 15.8399 23.8757 15.8399H35.2133C35.658 15.8399 36.0581 15.4839 36.0581 14.9945C36.0581 14.5051 35.7024 14.1491 35.2133 14.1491H29.2111L29.8335 13.2593C30.2337 12.6808 30.2337 11.9689 29.9224 11.346C29.6112 10.7231 28.9888 10.3671 28.2329 10.3671C28.144 10.3671 28.0995 10.3671 28.0995 10.2782C28.0995 10.2337 28.0995 10.1447 28.0995 10.1002L28.7665 9.07683H32.5457C32.9903 9.07683 33.3904 8.72088 33.3904 8.23144C33.3904 7.74201 33.0347 7.38606 32.5457 7.38606H29.8335L30.5894 6.22922C30.5894 6.22922 30.6783 6.14023 30.7227 6.14023H35.8803C35.8803 6.14023 36.0136 6.14023 36.0136 6.22922C36.0136 6.27371 36.0136 6.3627 36.0136 6.40719L33.257 10.7231C32.9903 11.1235 33.1237 11.613 33.5238 11.8799C33.924 12.1469 34.413 12.0134 34.6798 11.613L37.4364 7.29707C37.7921 6.71865 37.8366 6.00675 37.5253 5.42833C37.2141 4.84991 36.5916 4.44946 35.8803 4.44946H30.7227C30.1003 4.44946 29.5223 4.76092 29.1666 5.29485L26.6768 9.16581C26.3211 9.74424 26.2766 10.4561 26.5878 11.0346L26.6323 11.0791Z" fill="white"/>
<path d="M36.9029 12.4139C36.9029 12.4139 37.2141 12.5474 37.3475 12.5474C37.6143 12.5474 37.881 12.4139 38.0589 12.1914L42.505 5.47283C42.7718 5.07238 42.6384 4.58295 42.2827 4.31599C41.8825 4.04902 41.3935 4.1825 41.1267 4.53846L36.6806 11.257C36.4138 11.6575 36.5472 12.1469 36.9029 12.4139Z" fill="white"/>
<path d="M45.5728 13.7932C45.2171 13.5262 44.6836 13.6152 44.4168 13.9711L42.7717 16.2403C42.505 16.5963 42.5939 17.1302 42.9496 17.3972C43.083 17.4862 43.2608 17.5751 43.4387 17.5751C43.7054 17.5751 43.9722 17.4417 44.1056 17.2192L45.7507 14.95C46.0174 14.5941 45.9285 14.0601 45.5728 13.7932Z" fill="white"/>
<path d="M42.0604 3.42599C42.0604 3.42599 42.1049 3.51498 42.1493 3.55947C42.1493 3.60397 42.1938 3.64846 42.2382 3.69296C42.3716 3.87093 42.5939 3.95992 42.8162 3.95992C43.0385 3.95992 43.2608 3.87093 43.3942 3.69296C43.3942 3.69296 43.4832 3.60397 43.4832 3.55947C43.4832 3.51498 43.5276 3.47049 43.5721 3.42599C43.5721 3.3815 43.5721 3.337 43.6165 3.29251C43.6165 3.24802 43.6165 3.20352 43.6165 3.11453C43.6165 3.02555 43.6165 3.02555 43.6165 2.93656C43.6165 2.89207 43.6165 2.84757 43.5721 2.75858C43.5721 2.71409 43.5276 2.6696 43.4832 2.6251C43.4832 2.58061 43.4387 2.53611 43.3942 2.49162C43.2164 2.31364 42.9052 2.22466 42.6384 2.26915C42.5939 2.26915 42.5495 2.26915 42.505 2.31364C42.4605 2.31364 42.4161 2.35814 42.3716 2.40263C42.3272 2.40263 42.2827 2.49162 42.2382 2.49162C42.2382 2.49162 42.1493 2.58061 42.1493 2.6251C42.1493 2.6696 42.1049 2.71409 42.0604 2.75858C42.0604 2.80308 42.0604 2.84757 42.0159 2.93656C42.0159 2.98105 42.0159 3.02555 42.0159 3.11453C42.0159 3.20352 42.0159 3.20352 42.0159 3.29251C42.0159 3.337 42.0159 3.3815 42.0604 3.42599Z" fill="white"/>
<path d="M5.64661 8.27575C5.64661 8.27575 6.09122 8.18676 6.22461 8.05328C6.35799 7.91979 6.49138 7.69732 6.49138 7.47486C6.49138 7.25239 6.40245 7.02992 6.22461 6.89643C5.91338 6.58498 5.33538 6.58498 5.02415 6.89643C4.89077 7.02992 4.75739 7.25239 4.75739 7.47486C4.75739 7.69732 4.84631 7.91979 5.02415 8.05328C5.202 8.18676 5.37984 8.27575 5.60215 8.27575H5.64661Z" fill="white"/>
</g>
<defs>
<clipPath id="clip0_586_683">
<rect width="50.2857" height="40" fill="white"/>
</clipPath>
</defs>
</svg>
